<mxfile host="Electron" modified="2024-04-23T10:34:47.654Z" agent="Mozilla/5.0 (Macintosh; Intel Mac OS X 10_15_7) AppleWebKit/537.36 (KHTML, like Gecko) draw.io/24.2.5 Chrome/120.0.6099.109 Electron/28.1.0 Safari/537.36" etag="QJA2uP5Fi8leqwDxJ-Vf" version="24.2.5" type="device">
  <diagram name="Page-1" id="88KZzg8sia6wd_1pu0X0">
    <mxGraphModel dx="2052" dy="1398" grid="1" gridSize="10" guides="1" tooltips="1" connect="1" arrows="1" fold="1" page="1" pageScale="1" pageWidth="1169" pageHeight="827" math="0" shadow="0">
      <root>
        <mxCell id="0" />
        <mxCell id="1" parent="0" />
        <mxCell id="BA0XKQ6sLQ5oc8yL_ZZQ-1" value="Regions" parent="0" />
        <mxCell id="BA0XKQ6sLQ5oc8yL_ZZQ-7" value="&lt;b&gt;&lt;font&gt;OCI Region&lt;/font&gt;&lt;/b&gt;" style="whiteSpace=wrap;html=1;align=center;fontFamily=Oracle Sans;verticalAlign=top;fillColor=#F5F4F2;rounded=1;arcSize=10;strokeColor=#9E9892;fontColor=#312D2A;fontSize=12;" vertex="1" parent="BA0XKQ6sLQ5oc8yL_ZZQ-1">
          <mxGeometry x="80" y="121" width="440" height="640" as="geometry" />
        </mxCell>
        <mxCell id="BA0XKQ6sLQ5oc8yL_ZZQ-8" value="&lt;b&gt;&lt;font&gt;OCI Region&lt;/font&gt;&lt;/b&gt;" style="whiteSpace=wrap;html=1;align=center;fontFamily=Oracle Sans;verticalAlign=top;fillColor=#F5F4F2;rounded=1;arcSize=10;strokeColor=#9E9892;fontColor=#312D2A;fontSize=12;" vertex="1" parent="BA0XKQ6sLQ5oc8yL_ZZQ-1">
          <mxGeometry x="640" y="121" width="440" height="640" as="geometry" />
        </mxCell>
        <mxCell id="BA0XKQ6sLQ5oc8yL_ZZQ-9" value="Databases" parent="0" />
        <mxCell id="BA0XKQ6sLQ5oc8yL_ZZQ-10" style="vsdxID=137;fillColor=none;gradientColor=none;strokeColor=none;spacingTop=-3;spacingBottom=-3;spacingLeft=-3;spacingRight=-3;points=[];labelBackgroundColor=none;rounded=0;html=1;whiteSpace=wrap;" vertex="1" parent="BA0XKQ6sLQ5oc8yL_ZZQ-9">
          <mxGeometry x="258" y="551" width="64" height="84" as="geometry" />
        </mxCell>
        <mxCell id="BA0XKQ6sLQ5oc8yL_ZZQ-11" style="vsdxID=138;fillColor=#FFFFFF;gradientColor=none;shape=stencil(pZfdchshDIWfxrcakPi9TtP3yDRO7WkaZxyndd++2u4C5ngWN5O7NT7iAySOdjdy97Z7eN1u2Lydjocf29/7x9NuI182zPuX3fa4P+nTRu43cvd0OG6/Hw/vL4/z79eHSTk9/Tz8mmY4z3E2UUhTFJs/y4gx/35/neXP+5ehPAcyfj2AHdncBzgy6SMBkiiv681HtCTcyz1JvNR/ez/Op2NLRLBLxDIiTDzv15x5ORTKbhEtI5yJl6GzzEOOWBbRMsKBAo/ggXzPrnMumFwmaGBLKfRgK8QZyIbcCKwhmQFtyOK2HbnQ422mBHRHCegqkjTE+5YnW+suB8D7lhuuKod8TzEAP5a51vihVEXj6zSAj2Wk0oV8BrpmyANdM2RHdE2hT0A3ZLjHaz0Z4KdaDedWYSn1eF31sOamys09PVCWHi62zcu1VqWHiyPYumqGbL2NFtFQc+Lx1JukcDV7Y25vCqqvFfKf64wk/mqheEZaZVdLdWAKalfe4mJ5WJySi31ewMtIhedaigXuS9k1RzI92ZfLs0J2TDb0ZKEICXKOIpC53qZKjhTQFMjJCO6vnVhNLPdwr+uRHq43B7btAwG7atZ82BLYkem5QY/OIjeBFwRNHDgRlyytgCNThE27ej0LPKoPgg2HcskrPEbycBvzje6jIenahyzAEwn0PhV5OPKY8MhVlIYtKObWXArdkgUTTrog7AGW4JKpKCLe3rjiSa7x4MDJUwYTtEwJDj4l4ghwudF/spBA2qeWBP1PX7wy5J1bfkqSW0esReeKDa21P2N6uHaWCAaTtU3A5kVXDSWvS3Sw+ck7O3pvxtm3eZvfDdxb6yTGzwXceCHVPNcaq9savfJeB3zwlfpzcn1oL/tP++fn+Vvh8n/8ONCh+cNC7v8C);strokeColor=none;spacingTop=-3;spacingBottom=-3;spacingLeft=-3;spacingRight=-3;points=[];labelBackgroundColor=none;rounded=0;html=1;whiteSpace=wrap;" vertex="1" parent="BA0XKQ6sLQ5oc8yL_ZZQ-10">
          <mxGeometry x="1" y="1" width="62" height="82" as="geometry" />
        </mxCell>
        <mxCell id="BA0XKQ6sLQ5oc8yL_ZZQ-12" style="vsdxID=139;fillColor=#FFFFFF;gradientColor=none;shape=stencil(pVnbdhs3DPwavfKQBK/PafofOY1T69S1cxynVf4+2GoJLIe7lJy+yTSgIcHBAKBO9OHb46evDydvv729vvz18O/589vjiX47eX9+fnx4Pb/xpxN9PNGHLy+vD3++vnx//nz9++unxXL59PfLP8s3XK5+MZmUFy9vf1xXvKHy38LvV/s/vr9eHdz1/8ma6FcPJy7rd1z8ahSMr6vRukTGldWIVqNsYsNel4LJfgaerSmxB0/Gpx48k4k9djEh99g5Gt9DO2fcFDqaBNDskh1g63YauPPGE6AnUwvA+/b1R/hZwASfjMWzFxPh8GxFAfCrCQHwyYTpvRc/nj8Y63v8wlEiwI/GuR6/FOMq4AsRD/CrNTkAfjE+9PjVm1x6fG+H+NdgXOzxmcTT8Nc40p7ZCuGvSVgu8Fk3SWLV7k3gq8l0A7+mHp+YWBD+qrGWvAsmJcDnBIHrp9QSa8V/Oj9vZILDWtrpV4dsSjl2YLZKhH/RgXc52xLzkfot8eHzBGHHIQPnegfvDP0/+9gIsm+fTHTDkek9DlTafe86UNPyu+1j6u2ZqWFGS94wiBKx0ENWRGORlFZ2JppkLEgCL9U0A6/GgSIwVARFYGFF9OWcUA9YpAjhOb2mkuA2ye6EApUAnzMLSiFbYT1y2QRUJGvqtBiyT62Ab4dSzCJJgO9EbBSf6wYqcm0qdYRfDVGPv4QELn/Jigz4JEWq4bOWYvy5us4rAvOD4Px8sNrDk1OSSDeQIfrEDKUeXYyOiB81V5y4APeW9KkDOFQDNkpzbEjSrMXzzr2WYaNAEtaFgvtMcEVUtbWQjYZpzxS49GbEdoDNRhValiyq0sADpwzwg29/Ss/AHQ3QMw70CLrUwIOJkByhDOQkk6bdUgRV1PoporiRzpYqgyhu23MCo11y3O7nb/X/dnosGlLOwrHskG86MEhAsxq1bG9GR7cZRrGXaii36bSvlbGjYrJXbP2FA4f5YypgR5HeTQol32NvxJDEyEPjn1qKHIFnTQ8ZeYQnXoxiRvAANN4KB4HRvtLwmNL3GzfsNzK6bz8czg45yi6QKUuw4XBZpoyLVmvM0Qr941C/Suu2tH75YaJyGu3tRAPiyEsBEnUpqVONWHxwoisS8YuCeeAVF16caHgUq5hRtUnmEX5oIqb4dRhp2IrCgF9BqLikIz7nvZtevhODbf+UoIbutE+snJBXQRvjht6q6lHzILkp2NrOXES5MsqJH1q3DYW1nciTNLGtr9yORhPzzpar5WQoGjv+99rzpEcTh+Xqfe9A7cr2HbTgN4fQNPBeB2k89s9gcSpy1k7NS73fvMT2LvKL5jeOW0g5dldAi9Wu+64rGx3mnOANZ/ce+9h0Tvgs+rTvwIo6jLF+/vpR5RFF5sxgLFTBdjOqFKNQVu5ZQSnCrZenpI8fOmc50Gm+NpwzNwOivHxlvW6Vzjk+cwo7eK5TOOcWL9It+G4YNpgMOOmwlZ/WiVz1gvXlsxUleXmsqqiKb3HKL9pvN3zb5PwIvwxNAvvIeKIvn1JNhA86DTf8PNZJDsn85TXqa21bas8iCu/1i3WQ6MFTHRowf+PBO409ghUgKZEaZ+m5e+SdOWIiYjeGgncZ8wf97eHL+enp+tPF9v/4WwUvXX/noI8/AQ==);strokeColor=none;spacingTop=-3;spacingBottom=-3;spacingLeft=-3;spacingRight=-3;points=[];labelBackgroundColor=none;rounded=0;html=1;whiteSpace=wrap;" vertex="1" parent="BA0XKQ6sLQ5oc8yL_ZZQ-10">
          <mxGeometry width="64" height="84" as="geometry" />
        </mxCell>
        <mxCell id="BA0XKQ6sLQ5oc8yL_ZZQ-13" style="vsdxID=140;fillColor=#FFFFFF;gradientColor=none;shape=stencil(UzV2Ls5ILEhVNTIoLinKz04tz0wpyVA1dlE1MsrMy0gtyiwBslSNXVWNndPyi1LTi/JL81Ig/IJEkEoQKze/DGRCBUSfAUiHkUElhGdoAOG7QZTmZOYhKbXQszRBUW1prmdiRIJ6PGZbGuoZGpKvmIBLYN4iypvUUgpkIAI9LTMnBxJnyPLokQQUgkSwsSsA);strokeColor=none;spacingTop=-3;spacingBottom=-3;spacingLeft=-3;spacingRight=-3;points=[];labelBackgroundColor=none;rounded=0;html=1;whiteSpace=wrap;" vertex="1" parent="BA0XKQ6sLQ5oc8yL_ZZQ-10">
          <mxGeometry x="14" y="19" width="37" height="62" as="geometry" />
        </mxCell>
        <mxCell id="BA0XKQ6sLQ5oc8yL_ZZQ-14" style="vsdxID=141;fillColor=#FFFFFF;gradientColor=none;shape=stencil(pZPdDoMgDIWfhlsCVFGunXsPE3GSOTHI/t5+MmI2t8im3pX2O81pQxFkfV10EjHSW6OP8qpKWyPYIcZUW0uj7BAhyBFklTbyYPS5Lf27KxzpopO+uA43r0s5jpyIkbtPAKbwTOw93qg2hAuO02Sep4A53yZYaGgjPt2OoDhmE54EeuMYVrMiwkLM82QKJ6P8D5iSgI+xuAp2Nubp7925GfkSQcDLD3gIXj++Uk3jD+a9/nkhQ8pfF+QP);strokeColor=none;spacingTop=-3;spacingBottom=-3;spacingLeft=-3;spacingRight=-3;points=[];labelBackgroundColor=none;rounded=0;html=1;whiteSpace=wrap;" vertex="1" parent="BA0XKQ6sLQ5oc8yL_ZZQ-10">
          <mxGeometry x="13" y="18" width="39" height="64" as="geometry" />
        </mxCell>
        <mxCell id="BA0XKQ6sLQ5oc8yL_ZZQ-15" style="vsdxID=142;fillColor=#2d5967;gradientColor=none;shape=stencil(pZjbbtswDIafxreEROp43XXvUaDpYjRLijTr4e0nzzNaSQ4lxneO83/WT5qkDA1097p/eNkNqF4v59Pz7n18vOwH+jEgjsf97jxe0tVA9wPdPZ3Ou1/n05/j4/z75WFSTle/T2/TEz5mLmqwOFGoPv/fMRDjvzs/Z+AwHllAXRcHsHSztmFE5WK/4B1irRgfy583iScbktyJk10B+evUHlSeRQvKM0kn0G6TvhFBbUgM8I7a+jxDSGAyeYDgrj/eO3Bb5Jogmuv6yo1Uz9tpyvPceAWY5zJl1zNthRG83wYggmZebxWBWO8BmZZcMSQFSIPjSqJKqhhoWKqKTqznc7piSAo0yqIDyCvVaSjemgPLTBUKQNv0COG6vLYjlPNu2vo8O9aB1hngka0IF0CHfFA48AxgPZgoAUyEfIFUhJYpIYPl5OKfn3oqoMgQLdvQtxwppi0pOcot2QCI7AoqSACbuiBvTOfBcYAHHSUrpOcZK7IkraQOIK/V+sUZtdRW34SX6skuSeisJDHQcNQB5DkyqZRlK5TjS6pvhJwMBSkgi6ADqHYEGyUrWFr2sJuBRtDV2G7rZSF0AEWSAqi6tpn+T1O6mPNioBVD2npElSGOoQMoRlLaCIoYIpDkM1usN0BMBCsDowFII+gAihwFMK60hMw3T2rouBVoxFANvaZeFkIHUHyHERBJVkgNHUSWVgA+6JWp1wRkMXQA1VDCKFkhzRgvytIKwAe9MpSagCyGDiBdfJ3aPY2Hw3zo9/3/8pQv3ZpPCOn+Lw==);strokeColor=none;spacingTop=-3;spacingBottom=-3;spacingLeft=-3;spacingRight=-3;points=[];labelBackgroundColor=none;rounded=0;html=1;whiteSpace=wrap;" vertex="1" parent="BA0XKQ6sLQ5oc8yL_ZZQ-10">
          <mxGeometry x="13" y="18" width="39" height="64" as="geometry" />
        </mxCell>
        <mxCell id="BA0XKQ6sLQ5oc8yL_ZZQ-16" style="vsdxID=143;fillColor=#2d5967;gradientColor=none;shape=stencil(pVjLchs3EPwaXqcweAyAs+P8hyuWI1UUySXLifT3aYYEQDSycFK5USuAzXl098yewodv95++3p28+/b68vzb3Z8Pn1/vT+Gnk/cPT/d3Lw+v+HQKH0/hw5fnl7tfX56/P32+/P310/nk+dPvz3+cv+Htcq9mUTvf8u79+sSk+L+f/Hy58PjwdHvBJM7nq1g+Pl+8lPL/LpQiNW1+URDn9xd++f5yCVqvV6JYu3J9VFRivTx68/1Uaaeuj3Lo6XoLHT5dL75fH1mSGLf4XkKa8VOW7Gf8UiWnGT+pqM74xcTbjB9Nct3hlzh+8/VRjK0qA99LjjN+RPyZ8F0DG/g9vAP8XMUp4avYDJ+zBCN4J47gc5LqZ/iQWwcdwSP8GT0kMao+Sh0o+8FLJXQvKc3oHlXTLbpKoObzsQfR4K1KCjO8R6bLjG/IUZjxNYttk4/uVEq+IiFK+IiMiq9eIuGnKiUSvrZGPsBHp2skfCeVqp+ihEr4NxRt+CpFCT+I31Y/VvGMn8QRPjhUlfCLuDjjx3Gx11+l5i1+GLIy6p+IfGcOEb43SZR/EMIofo/uDzv8UAZjtPeso/YHiRzlH6daszd88IbaD4d0m/4wJKTDF8kUftAh6gM+kvaefzfRDxd1m37kR8uMD153YjWwtNAPsXoKH3XzmfCLhD0+RIS1d/UenFKKH72mVH7fuTa0F/nfwutQ1UZIUJ26H1JjFH5KvW0bvNZF/VIR21ofSBSp/Ibw04wPEXOk/RYkU/lB2yZIN9Ybtu0HeWD1gYhmih9SQ+TL/Uk3/gUcXrTvPVCTYocT+jBjw7wp9SVIDTO4iRLxfjAl+ZHkfzdWrRfUuePj7j8cFa/TaQxafts0rjO/j2vWRbzXrFex16wIEZa8CkXdD0rWq/M+3NORVlVhqlThTgXpCTv1weW4Uwv5NO40VexRx07eDv+PTFHyKbDeb30CdzIPqZhACN6GmjadKku34lTgGTE36T6Ct8WmzjrJRS+iPKXZMqNCqCqFD5/Yy7Qu0YO+nrIPA1hcMoixTNtozaHcP7CJOuo6pJOnRDiXUfiQzkpTCpwr85QEamy7D1m0vOBn0mlMCUbdd/5mUkp4YiKbxK8s2/KH2j2x4w/n7lOSW6akc0cS6TFdklKDNbYlPoa0SMy/GT/GjMj72TIhw48r5T7sHRr05f3ALbthshGTnxS4O4QbDdSiblvXkdrFQabWhovgwC1ZcGJ3rL4Xud4E3Z9km3CsW5Gn8rBILRyWotbRWx08S+ShODZSHMHn8dahhW59Bnq7MRReysoYnRt+HU05BtW9w2GL5qUsuDbKjI18nYrHvDs2cl36HaeuRTvCR+dS02FQd0R3jAwsN9AJRy1fdck/KBi3ZoMRQEnuYlym8gofoaU0DQXo+HksWM3srO1JR/goEMmNjW2/9ZpzMziWdN7I8UWFrC7b3mpwJZPUYuJrL6h67KUpZoevTuISOvv8+YXdxDx8GG8Dvzw8Pl5eJt7+n98e4tHlzWP4+Bc=);strokeColor=none;spacingTop=-3;spacingBottom=-3;spacingLeft=-3;spacingRight=-3;points=[];labelBackgroundColor=none;rounded=0;html=1;whiteSpace=wrap;" vertex="1" parent="BA0XKQ6sLQ5oc8yL_ZZQ-10">
          <mxGeometry x="2" y="1" width="59" height="30" as="geometry" />
        </mxCell>
        <mxCell id="BA0XKQ6sLQ5oc8yL_ZZQ-17" value="&lt;div style=&quot;font-size: 1px&quot;&gt;&lt;p style=&quot;align:center;margin-left:0;margin-right:0;margin-top:0px;margin-bottom:0px;text-indent:0;valign:middle;direction:ltr;&quot;&gt;&lt;font style=&quot;font-size:16.93px;font-family:Oracle Sans;color:#000000;direction:ltr;letter-spacing:0px;line-height:120%;opacity:1&quot;&gt;ExaDB-D&lt;br&gt;&lt;/font&gt;&lt;/p&gt;&lt;/div&gt;" style="verticalAlign=middle;align=center;vsdxID=145;fillColor=none;gradientColor=none;shape=stencil(nZBLDoAgDERP0z3SIyjew0SURgSD+Lu9kMZoXLhwN9O+tukAlrNpJg1SzDH4QW/URgNYgZTkjA4UkwJUgGXng+6DX1zLfmoymdXo17xh5zmRJ6Q42BWCfc2oJfdAr+Yv+AP9Cb7OJ3H/2JG1HNGz/84klThPVCc=);strokeColor=none;spacingTop=-3;spacingBottom=-3;spacingLeft=-3;spacingRight=-3;points=[];labelBackgroundColor=none;rounded=0;html=1;whiteSpace=wrap;" vertex="1" parent="BA0XKQ6sLQ5oc8yL_ZZQ-9">
          <mxGeometry x="250" y="640" width="78" height="40" as="geometry" />
        </mxCell>
        <mxCell id="BA0XKQ6sLQ5oc8yL_ZZQ-18" style="vsdxID=137;fillColor=none;gradientColor=none;strokeColor=none;spacingTop=-3;spacingBottom=-3;spacingLeft=-3;spacingRight=-3;points=[];labelBackgroundColor=none;rounded=0;html=1;whiteSpace=wrap;" vertex="1" parent="BA0XKQ6sLQ5oc8yL_ZZQ-9">
          <mxGeometry x="838" y="561" width="64" height="84" as="geometry" />
        </mxCell>
        <mxCell id="BA0XKQ6sLQ5oc8yL_ZZQ-19" style="vsdxID=138;fillColor=#FFFFFF;gradientColor=none;shape=stencil(pZfdchshDIWfxrcakPi9TtP3yDRO7WkaZxyndd++2u4C5ngWN5O7NT7iAySOdjdy97Z7eN1u2Lydjocf29/7x9NuI182zPuX3fa4P+nTRu43cvd0OG6/Hw/vL4/z79eHSTk9/Tz8mmY4z3E2UUhTFJs/y4gx/35/neXP+5ehPAcyfj2AHdncBzgy6SMBkiiv681HtCTcyz1JvNR/ez/Op2NLRLBLxDIiTDzv15x5ORTKbhEtI5yJl6GzzEOOWBbRMsKBAo/ggXzPrnMumFwmaGBLKfRgK8QZyIbcCKwhmQFtyOK2HbnQ422mBHRHCegqkjTE+5YnW+suB8D7lhuuKod8TzEAP5a51vihVEXj6zSAj2Wk0oV8BrpmyANdM2RHdE2hT0A3ZLjHaz0Z4KdaDedWYSn1eF31sOamys09PVCWHi62zcu1VqWHiyPYumqGbL2NFtFQc+Lx1JukcDV7Y25vCqqvFfKf64wk/mqheEZaZVdLdWAKalfe4mJ5WJySi31ewMtIhedaigXuS9k1RzI92ZfLs0J2TDb0ZKEICXKOIpC53qZKjhTQFMjJCO6vnVhNLPdwr+uRHq43B7btAwG7atZ82BLYkem5QY/OIjeBFwRNHDgRlyytgCNThE27ej0LPKoPgg2HcskrPEbycBvzje6jIenahyzAEwn0PhV5OPKY8MhVlIYtKObWXArdkgUTTrog7AGW4JKpKCLe3rjiSa7x4MDJUwYTtEwJDj4l4ghwudF/spBA2qeWBP1PX7wy5J1bfkqSW0esReeKDa21P2N6uHaWCAaTtU3A5kVXDSWvS3Sw+ck7O3pvxtm3eZvfDdxb6yTGzwXceCHVPNcaq9savfJeB3zwlfpzcn1oL/tP++fn+Vvh8n/8ONCh+cNC7v8C);strokeColor=none;spacingTop=-3;spacingBottom=-3;spacingLeft=-3;spacingRight=-3;points=[];labelBackgroundColor=none;rounded=0;html=1;whiteSpace=wrap;" vertex="1" parent="BA0XKQ6sLQ5oc8yL_ZZQ-18">
          <mxGeometry x="1" y="1" width="62" height="82" as="geometry" />
        </mxCell>
        <mxCell id="BA0XKQ6sLQ5oc8yL_ZZQ-20" style="vsdxID=139;fillColor=#FFFFFF;gradientColor=none;shape=stencil(pVnbdhs3DPwavfKQBK/PafofOY1T69S1cxynVf4+2GoJLIe7lJy+yTSgIcHBAKBO9OHb46evDydvv729vvz18O/589vjiX47eX9+fnx4Pb/xpxN9PNGHLy+vD3++vnx//nz9++unxXL59PfLP8s3XK5+MZmUFy9vf1xXvKHy38LvV/s/vr9eHdz1/8ma6FcPJy7rd1z8ahSMr6vRukTGldWIVqNsYsNel4LJfgaerSmxB0/Gpx48k4k9djEh99g5Gt9DO2fcFDqaBNDskh1g63YauPPGE6AnUwvA+/b1R/hZwASfjMWzFxPh8GxFAfCrCQHwyYTpvRc/nj8Y63v8wlEiwI/GuR6/FOMq4AsRD/CrNTkAfjE+9PjVm1x6fG+H+NdgXOzxmcTT8Nc40p7ZCuGvSVgu8Fk3SWLV7k3gq8l0A7+mHp+YWBD+qrGWvAsmJcDnBIHrp9QSa8V/Oj9vZILDWtrpV4dsSjl2YLZKhH/RgXc52xLzkfot8eHzBGHHIQPnegfvDP0/+9gIsm+fTHTDkek9DlTafe86UNPyu+1j6u2ZqWFGS94wiBKx0ENWRGORlFZ2JppkLEgCL9U0A6/GgSIwVARFYGFF9OWcUA9YpAjhOb2mkuA2ye6EApUAnzMLSiFbYT1y2QRUJGvqtBiyT62Ab4dSzCJJgO9EbBSf6wYqcm0qdYRfDVGPv4QELn/Jigz4JEWq4bOWYvy5us4rAvOD4Px8sNrDk1OSSDeQIfrEDKUeXYyOiB81V5y4APeW9KkDOFQDNkpzbEjSrMXzzr2WYaNAEtaFgvtMcEVUtbWQjYZpzxS49GbEdoDNRhValiyq0sADpwzwg29/Ss/AHQ3QMw70CLrUwIOJkByhDOQkk6bdUgRV1PoporiRzpYqgyhu23MCo11y3O7nb/X/dnosGlLOwrHskG86MEhAsxq1bG9GR7cZRrGXaii36bSvlbGjYrJXbP2FA4f5YypgR5HeTQol32NvxJDEyEPjn1qKHIFnTQ8ZeYQnXoxiRvAANN4KB4HRvtLwmNL3GzfsNzK6bz8czg45yi6QKUuw4XBZpoyLVmvM0Qr941C/Suu2tH75YaJyGu3tRAPiyEsBEnUpqVONWHxwoisS8YuCeeAVF16caHgUq5hRtUnmEX5oIqb4dRhp2IrCgF9BqLikIz7nvZtevhODbf+UoIbutE+snJBXQRvjht6q6lHzILkp2NrOXES5MsqJH1q3DYW1nciTNLGtr9yORhPzzpar5WQoGjv+99rzpEcTh+Xqfe9A7cr2HbTgN4fQNPBeB2k89s9gcSpy1k7NS73fvMT2LvKL5jeOW0g5dldAi9Wu+64rGx3mnOANZ/ce+9h0Tvgs+rTvwIo6jLF+/vpR5RFF5sxgLFTBdjOqFKNQVu5ZQSnCrZenpI8fOmc50Gm+NpwzNwOivHxlvW6Vzjk+cwo7eK5TOOcWL9It+G4YNpgMOOmwlZ/WiVz1gvXlsxUleXmsqqiKb3HKL9pvN3zb5PwIvwxNAvvIeKIvn1JNhA86DTf8PNZJDsn85TXqa21bas8iCu/1i3WQ6MFTHRowf+PBO409ghUgKZEaZ+m5e+SdOWIiYjeGgncZ8wf97eHL+enp+tPF9v/4WwUvXX/noI8/AQ==);strokeColor=none;spacingTop=-3;spacingBottom=-3;spacingLeft=-3;spacingRight=-3;points=[];labelBackgroundColor=none;rounded=0;html=1;whiteSpace=wrap;" vertex="1" parent="BA0XKQ6sLQ5oc8yL_ZZQ-18">
          <mxGeometry width="64" height="84" as="geometry" />
        </mxCell>
        <mxCell id="BA0XKQ6sLQ5oc8yL_ZZQ-21" style="vsdxID=140;fillColor=#FFFFFF;gradientColor=none;shape=stencil(UzV2Ls5ILEhVNTIoLinKz04tz0wpyVA1dlE1MsrMy0gtyiwBslSNXVWNndPyi1LTi/JL81Ig/IJEkEoQKze/DGRCBUSfAUiHkUElhGdoAOG7QZTmZOYhKbXQszRBUW1prmdiRIJ6PGZbGuoZGpKvmIBLYN4iypvUUgpkIAI9LTMnBxJnyPLokQQUgkSwsSsA);strokeColor=none;spacingTop=-3;spacingBottom=-3;spacingLeft=-3;spacingRight=-3;points=[];labelBackgroundColor=none;rounded=0;html=1;whiteSpace=wrap;" vertex="1" parent="BA0XKQ6sLQ5oc8yL_ZZQ-18">
          <mxGeometry x="14" y="19" width="37" height="62" as="geometry" />
        </mxCell>
        <mxCell id="BA0XKQ6sLQ5oc8yL_ZZQ-22" style="vsdxID=141;fillColor=#FFFFFF;gradientColor=none;shape=stencil(pZPdDoMgDIWfhlsCVFGunXsPE3GSOTHI/t5+MmI2t8im3pX2O81pQxFkfV10EjHSW6OP8qpKWyPYIcZUW0uj7BAhyBFklTbyYPS5Lf27KxzpopO+uA43r0s5jpyIkbtPAKbwTOw93qg2hAuO02Sep4A53yZYaGgjPt2OoDhmE54EeuMYVrMiwkLM82QKJ6P8D5iSgI+xuAp2Nubp7925GfkSQcDLD3gIXj++Uk3jD+a9/nkhQ8pfF+QP);strokeColor=none;spacingTop=-3;spacingBottom=-3;spacingLeft=-3;spacingRight=-3;points=[];labelBackgroundColor=none;rounded=0;html=1;whiteSpace=wrap;" vertex="1" parent="BA0XKQ6sLQ5oc8yL_ZZQ-18">
          <mxGeometry x="13" y="18" width="39" height="64" as="geometry" />
        </mxCell>
        <mxCell id="BA0XKQ6sLQ5oc8yL_ZZQ-23" style="vsdxID=142;fillColor=#2d5967;gradientColor=none;shape=stencil(pZjbbtswDIafxreEROp43XXvUaDpYjRLijTr4e0nzzNaSQ4lxneO83/WT5qkDA1097p/eNkNqF4v59Pz7n18vOwH+jEgjsf97jxe0tVA9wPdPZ3Ou1/n05/j4/z75WFSTle/T2/TEz5mLmqwOFGoPv/fMRDjvzs/Z+AwHllAXRcHsHSztmFE5WK/4B1irRgfy583iScbktyJk10B+evUHlSeRQvKM0kn0G6TvhFBbUgM8I7a+jxDSGAyeYDgrj/eO3Bb5Jogmuv6yo1Uz9tpyvPceAWY5zJl1zNthRG83wYggmZebxWBWO8BmZZcMSQFSIPjSqJKqhhoWKqKTqznc7piSAo0yqIDyCvVaSjemgPLTBUKQNv0COG6vLYjlPNu2vo8O9aB1hngka0IF0CHfFA48AxgPZgoAUyEfIFUhJYpIYPl5OKfn3oqoMgQLdvQtxwppi0pOcot2QCI7AoqSACbuiBvTOfBcYAHHSUrpOcZK7IkraQOIK/V+sUZtdRW34SX6skuSeisJDHQcNQB5DkyqZRlK5TjS6pvhJwMBSkgi6ADqHYEGyUrWFr2sJuBRtDV2G7rZSF0AEWSAqi6tpn+T1O6mPNioBVD2npElSGOoQMoRlLaCIoYIpDkM1usN0BMBCsDowFII+gAihwFMK60hMw3T2rouBVoxFANvaZeFkIHUHyHERBJVkgNHUSWVgA+6JWp1wRkMXQA1VDCKFkhzRgvytIKwAe9MpSagCyGDiBdfJ3aPY2Hw3zo9/3/8pQv3ZpPCOn+Lw==);strokeColor=none;spacingTop=-3;spacingBottom=-3;spacingLeft=-3;spacingRight=-3;points=[];labelBackgroundColor=none;rounded=0;html=1;whiteSpace=wrap;" vertex="1" parent="BA0XKQ6sLQ5oc8yL_ZZQ-18">
          <mxGeometry x="13" y="18" width="39" height="64" as="geometry" />
        </mxCell>
        <mxCell id="BA0XKQ6sLQ5oc8yL_ZZQ-24" style="vsdxID=143;fillColor=#2d5967;gradientColor=none;shape=stencil(pVjLchs3EPwaXqcweAyAs+P8hyuWI1UUySXLifT3aYYEQDSycFK5USuAzXl098yewodv95++3p28+/b68vzb3Z8Pn1/vT+Gnk/cPT/d3Lw+v+HQKH0/hw5fnl7tfX56/P32+/P310/nk+dPvz3+cv+Htcq9mUTvf8u79+sSk+L+f/Hy58PjwdHvBJM7nq1g+Pl+8lPL/LpQiNW1+URDn9xd++f5yCVqvV6JYu3J9VFRivTx68/1Uaaeuj3Lo6XoLHT5dL75fH1mSGLf4XkKa8VOW7Gf8UiWnGT+pqM74xcTbjB9Nct3hlzh+8/VRjK0qA99LjjN+RPyZ8F0DG/g9vAP8XMUp4avYDJ+zBCN4J47gc5LqZ/iQWwcdwSP8GT0kMao+Sh0o+8FLJXQvKc3oHlXTLbpKoObzsQfR4K1KCjO8R6bLjG/IUZjxNYttk4/uVEq+IiFK+IiMiq9eIuGnKiUSvrZGPsBHp2skfCeVqp+ihEr4NxRt+CpFCT+I31Y/VvGMn8QRPjhUlfCLuDjjx3Gx11+l5i1+GLIy6p+IfGcOEb43SZR/EMIofo/uDzv8UAZjtPeso/YHiRzlH6daszd88IbaD4d0m/4wJKTDF8kUftAh6gM+kvaefzfRDxd1m37kR8uMD153YjWwtNAPsXoKH3XzmfCLhD0+RIS1d/UenFKKH72mVH7fuTa0F/nfwutQ1UZIUJ26H1JjFH5KvW0bvNZF/VIR21ofSBSp/Ibw04wPEXOk/RYkU/lB2yZIN9Ybtu0HeWD1gYhmih9SQ+TL/Uk3/gUcXrTvPVCTYocT+jBjw7wp9SVIDTO4iRLxfjAl+ZHkfzdWrRfUuePj7j8cFa/TaQxafts0rjO/j2vWRbzXrFex16wIEZa8CkXdD0rWq/M+3NORVlVhqlThTgXpCTv1weW4Uwv5NO40VexRx07eDv+PTFHyKbDeb30CdzIPqZhACN6GmjadKku34lTgGTE36T6Ct8WmzjrJRS+iPKXZMqNCqCqFD5/Yy7Qu0YO+nrIPA1hcMoixTNtozaHcP7CJOuo6pJOnRDiXUfiQzkpTCpwr85QEamy7D1m0vOBn0mlMCUbdd/5mUkp4YiKbxK8s2/KH2j2x4w/n7lOSW6akc0cS6TFdklKDNbYlPoa0SMy/GT/GjMj72TIhw48r5T7sHRr05f3ALbthshGTnxS4O4QbDdSiblvXkdrFQabWhovgwC1ZcGJ3rL4Xud4E3Z9km3CsW5Gn8rBILRyWotbRWx08S+ShODZSHMHn8dahhW59Bnq7MRReysoYnRt+HU05BtW9w2GL5qUsuDbKjI18nYrHvDs2cl36HaeuRTvCR+dS02FQd0R3jAwsN9AJRy1fdck/KBi3ZoMRQEnuYlym8gofoaU0DQXo+HksWM3srO1JR/goEMmNjW2/9ZpzMziWdN7I8UWFrC7b3mpwJZPUYuJrL6h67KUpZoevTuISOvv8+YXdxDx8GG8Dvzw8Pl5eJt7+n98e4tHlzWP4+Bc=);strokeColor=none;spacingTop=-3;spacingBottom=-3;spacingLeft=-3;spacingRight=-3;points=[];labelBackgroundColor=none;rounded=0;html=1;whiteSpace=wrap;" vertex="1" parent="BA0XKQ6sLQ5oc8yL_ZZQ-18">
          <mxGeometry x="2" y="1" width="59" height="30" as="geometry" />
        </mxCell>
        <mxCell id="BA0XKQ6sLQ5oc8yL_ZZQ-25" value="&lt;div style=&quot;font-size: 1px&quot;&gt;&lt;p style=&quot;align:center;margin-left:0;margin-right:0;margin-top:0px;margin-bottom:0px;text-indent:0;valign:middle;direction:ltr;&quot;&gt;&lt;font style=&quot;font-size:16.93px;font-family:Oracle Sans;color:#000000;direction:ltr;letter-spacing:0px;line-height:120%;opacity:1&quot;&gt;ExaDB-D&lt;/font&gt;&lt;/p&gt;&lt;/div&gt;" style="verticalAlign=middle;align=center;vsdxID=145;fillColor=none;gradientColor=none;shape=stencil(nZBLDoAgDERP0z3SIyjew0SURgSD+Lu9kMZoXLhwN9O+tukAlrNpJg1SzDH4QW/URgNYgZTkjA4UkwJUgGXng+6DX1zLfmoymdXo17xh5zmRJ6Q42BWCfc2oJfdAr+Yv+AP9Cb7OJ3H/2JG1HNGz/84klThPVCc=);strokeColor=none;spacingTop=-3;spacingBottom=-3;spacingLeft=-3;spacingRight=-3;points=[];labelBackgroundColor=none;rounded=0;html=1;whiteSpace=wrap;" vertex="1" parent="BA0XKQ6sLQ5oc8yL_ZZQ-9">
          <mxGeometry x="830" y="650" width="78" height="40" as="geometry" />
        </mxCell>
        <mxCell id="BA0XKQ6sLQ5oc8yL_ZZQ-72" value="" style="group" vertex="1" connectable="0" parent="BA0XKQ6sLQ5oc8yL_ZZQ-9">
          <mxGeometry x="520" y="451" width="120" height="13.36" as="geometry" />
        </mxCell>
        <mxCell id="BA0XKQ6sLQ5oc8yL_ZZQ-73" value="" style="endArrow=open;html=1;startArrow=none;startFill=0;endFill=0;rounded=0;fontFamily=Oracle Sans;fontSize=10.5;fontColor=#312D2A;labelBackgroundColor=none;strokeColor=#312D2A;exitX=0.5;exitY=0;exitDx=0;exitDy=0;dashed=1;endSize=6;elbow=vertical;" edge="1" parent="BA0XKQ6sLQ5oc8yL_ZZQ-72">
          <mxGeometry x="15.348837209302324" y="-15.109999999999983" width="34.883720930232556" height="49.999999999999524" as="geometry">
            <mxPoint y="7.889999999999797" as="sourcePoint" />
            <mxPoint x="119.99999999999999" y="7.999999999999924" as="targetPoint" />
          </mxGeometry>
        </mxCell>
        <mxCell id="BA0XKQ6sLQ5oc8yL_ZZQ-74" value="&lt;font style=&quot;font-size: 30px;&quot;&gt;FSDR&lt;/font&gt;" style="whiteSpace=wrap;html=1;align=center;fontFamily=Oracle Sans;verticalAlign=middle;fillColor=#FFFFFF;rounded=0;arcSize=8;strokeColor=none;fontColor=#312D2A;fontSize=10;" vertex="1" parent="BA0XKQ6sLQ5oc8yL_ZZQ-72">
          <mxGeometry x="29.302325581395348" width="59.30232558139535" height="13.359999999999872" as="geometry" />
        </mxCell>
        <mxCell id="BA0XKQ6sLQ5oc8yL_ZZQ-26" value="Application" parent="0" />
        <mxCell id="BA0XKQ6sLQ5oc8yL_ZZQ-27" value="" style="group" vertex="1" connectable="0" parent="BA0XKQ6sLQ5oc8yL_ZZQ-26">
          <mxGeometry x="250" y="371.0000000000002" width="84" height="130" as="geometry" />
        </mxCell>
        <mxCell id="BA0XKQ6sLQ5oc8yL_ZZQ-28" style="vsdxID=53;fillColor=none;gradientColor=none;strokeColor=none;spacingTop=-3;spacingBottom=-3;spacingLeft=-3;spacingRight=-3;points=[];labelBackgroundColor=none;rounded=0;html=1;whiteSpace=wrap;" vertex="1" parent="BA0XKQ6sLQ5oc8yL_ZZQ-27">
          <mxGeometry width="84" height="84" as="geometry" />
        </mxCell>
        <mxCell id="BA0XKQ6sLQ5oc8yL_ZZQ-29" style="vsdxID=54;fillColor=none;gradientColor=none;strokeColor=none;spacingTop=-3;spacingBottom=-3;spacingLeft=-3;spacingRight=-3;points=[];labelBackgroundColor=none;rounded=0;html=1;whiteSpace=wrap;" vertex="1" parent="BA0XKQ6sLQ5oc8yL_ZZQ-28">
          <mxGeometry width="84" height="84" as="geometry" />
        </mxCell>
        <mxCell id="BA0XKQ6sLQ5oc8yL_ZZQ-30" style="vsdxID=55;fillColor=#FFFFFF;gradientColor=none;shape=stencil(lZPRDoIwDEW/Zq9LWUHCs+J/EAVZRCATFP/eYYdsAzW+td2922mzMtxey6zNmYBrp5pzfpfHrmS4Y0LIusyV7HTEMGW4LRqVn1TT10fK22xUjtGluY03DOSLOEajScCDCknC482rsif9oVdkCEggeIjGEfgWGASVwChMmsQchVGgqzBpEvLQfrWStUUJDuKb+QMhuHgz8ERnteDyTnDWVBzcVTiNvnFnCN/o9Cyi2CUEFy8Ab3xWB+hLfOJVxFnuI3+AnA1L6kEsG/HJB1zOxkNfBf39Hf/V62D++4WsKlod+9zfFV2iPcP0CQ==);strokeColor=none;spacingTop=-3;spacingBottom=-3;spacingLeft=-3;spacingRight=-3;points=[];labelBackgroundColor=none;rounded=0;html=1;whiteSpace=wrap;" vertex="1" parent="BA0XKQ6sLQ5oc8yL_ZZQ-29">
          <mxGeometry x="1" y="1" width="82" height="82" as="geometry" />
        </mxCell>
        <mxCell id="BA0XKQ6sLQ5oc8yL_ZZQ-31" style="vsdxID=56;fillColor=#FFFFFF;gradientColor=none;shape=stencil(lZXRdoIwDIafprc9aUMpvXb6Hp6JgzMmHsSNvf1gLbQNCHpX4h/88iehDHe34njNmYRb29Sf+U95aguGb0zK8lLkTdn2J4Z7hrtz3eQfTX2/nOzz9Tgoh9NX/T28obN5BjmqIUvCr41Ijtl/4GD17/fGJgiXoXhiXIYgKdBJJ9IcR5ELJVy6SIdzkQulPMHwz6vyEsIGCRN+JlZpgxRfgFEEN6jJV5ClhDfwCqlqEbgvR8S8VE95e5c0wdU8lTFu77cmtIprEdMGIs+v9GPYIGG5GZQ1SBCzHstZPXI2LDhzCZdnkIzB5sy+qt/aCXihxbBuWaZiyyD2C6hZdAghdmp9YSAi21wWYHTyREInb+J3EQHANro5Sh41R8U7TeQLGy2Ih56BQgXbPJWCVPPcenj9c9thDNcp/U5O3Ry5Um5EjErsXPjorLu5Nrr9wV8E57Kq7D0S/k4vjj5kLx3c/wE=);strokeColor=none;spacingTop=-3;spacingBottom=-3;spacingLeft=-3;spacingRight=-3;points=[];labelBackgroundColor=none;rounded=0;html=1;whiteSpace=wrap;" vertex="1" parent="BA0XKQ6sLQ5oc8yL_ZZQ-29">
          <mxGeometry width="84" height="84" as="geometry" />
        </mxCell>
        <mxCell id="BA0XKQ6sLQ5oc8yL_ZZQ-32" style="vsdxID=57;fillColor=none;gradientColor=none;strokeColor=none;spacingTop=-3;spacingBottom=-3;spacingLeft=-3;spacingRight=-3;points=[];labelBackgroundColor=none;rounded=0;html=1;whiteSpace=wrap;" vertex="1" parent="BA0XKQ6sLQ5oc8yL_ZZQ-28">
          <mxGeometry x="2" y="2" width="80" height="80" as="geometry" />
        </mxCell>
        <mxCell id="BA0XKQ6sLQ5oc8yL_ZZQ-33" style="vsdxID=58;fillColor=#2d5967;gradientColor=none;shape=stencil(lZXLcoMwDEW/xlvGWDzidZr8R6YhhSmFDCEt+ftCbbAkB+Lu/LgyR/IVFrC/ladrIZS89V37WfxU574U8CaUqpqy6Kp+HAk4CNhf2q746Np7czbz62lSTqOv9ns6YTBxOo3SeIpS8mFW5N/saMR11SBxEqlkXft+78zJsdmMI62tOsZyOSgyfdipsrtAd2H5drpOJgmWzra4JIXSO0qFsOcVKSkaqgNQyVO4scZ5RgCZnBPqXSRjSukYONRMueQBXAAOY6OETv+84B6kno9bIBVF1LnLm175AL774KX9XniVGTtzNVzJ38so88puneRSSr2UxihbqK20nCqsszw9hwWvuzCImkV5wmkpKlKE2QQFhPkEBdiVhEPyhoPFWesdB5uUfstxfcDlIwx01+z6EwqKFUF/rgCf/jtgHLj//aWqa/Nc4H3+PoxL5m2Bwy8=);strokeColor=none;spacingTop=-3;spacingBottom=-3;spacingLeft=-3;spacingRight=-3;points=[];labelBackgroundColor=none;rounded=0;html=1;whiteSpace=wrap;" vertex="1" parent="BA0XKQ6sLQ5oc8yL_ZZQ-32">
          <mxGeometry width="80" height="80" as="geometry" />
        </mxCell>
        <mxCell id="BA0XKQ6sLQ5oc8yL_ZZQ-34" style="vsdxID=59;fillColor=#2d5967;gradientColor=none;shape=stencil(pZJbDsIgFERXwy+hQBW/a91Hk1IhIjQUX7sXcmNsNaWx/s1wz32EDGLVoJpeIkqG4N1J3nQbFGJ7RKm2SnodokKsRqzqnJdH7y62Bd83iUzq7K5pwh36SOqg5AGuIOAPgBptR+iruArOoCvB7PosOv0BjkUxpTdYlPOjdxyXf/GCY7qd57/u+ZVfuGeZj+Idl04bA2kb1z/jFZ8gmqx+Ag==);strokeColor=none;spacingTop=-3;spacingBottom=-3;spacingLeft=-3;spacingRight=-3;points=[];labelBackgroundColor=none;rounded=0;html=1;whiteSpace=wrap;" vertex="1" parent="BA0XKQ6sLQ5oc8yL_ZZQ-32">
          <mxGeometry x="11" y="51" width="58" height="17" as="geometry" />
        </mxCell>
        <mxCell id="BA0XKQ6sLQ5oc8yL_ZZQ-35" style="vsdxID=60;fillColor=#2d5967;gradientColor=none;shape=stencil(jVLRDoMgDPwaXg2UOeezc/9hJk4ypwZ107+fpCRClxnf2nLH9eCYzIa66BUDPoyme6qPLseaySsD0G2tjB7XismcyazqjHqYbmpL7PvCIm316t72hhl5MbcU4Au2gmN/Q+x9MggWeJwk0Vk4gggZfAYyWGAjgcNIinGDUxql6Z7yxnADgEheQmV/OzfioW5MZHfNWoUkFCVWiVF/JRkijtokJv2ng9+t6Iv/s0l+tdHt4QSsxRadSjcNJs8/p1FbRxhTmX8B);strokeColor=none;spacingTop=-3;spacingBottom=-3;spacingLeft=-3;spacingRight=-3;points=[];labelBackgroundColor=none;rounded=0;html=1;whiteSpace=wrap;" vertex="1" parent="BA0XKQ6sLQ5oc8yL_ZZQ-32">
          <mxGeometry x="57" y="58" width="4" height="4" as="geometry" />
        </mxCell>
        <mxCell id="BA0XKQ6sLQ5oc8yL_ZZQ-36" style="vsdxID=61;fillColor=#2d5967;gradientColor=none;shape=stencil(pZLbDsIgEES/Zl8JZW3E51r/o0mpEBEa2nr5e0Fi2qrpRd92Z8+QCRnArJFFLYDRpnX2JK6qbCXgHhhTRgqnWj8B5oBZZZ04OtuZMu51Ecgwne0lvHCLvh0nnAcXo/eo0Od2iLBWZgDT38CETqCv4yJ4VdoZePwPHEmyGcFBSSdyp2SL/xl65avhM9Jqw0ykBQY/9NWplNaxecP7e9W8FGuK+QM=);strokeColor=none;spacingTop=-3;spacingBottom=-3;spacingLeft=-3;spacingRight=-3;points=[];labelBackgroundColor=none;rounded=0;html=1;whiteSpace=wrap;" vertex="1" parent="BA0XKQ6sLQ5oc8yL_ZZQ-32">
          <mxGeometry x="11" y="11" width="17" height="17" as="geometry" />
        </mxCell>
        <mxCell id="BA0XKQ6sLQ5oc8yL_ZZQ-37" style="vsdxID=62;fillColor=#2d5967;gradientColor=none;shape=stencil(pZJJDoMwDEVP422UxGXYU3oPJEKJmhIUoMPtm8iqCnSE7vzj920r+oBZVxetAsm73tmDOuuyrwG3IKVuauV07yvAHDCrrFN7Z4emJN0WgQzV0Z7ChAv5BOfBI/mVNKkdoUY3I3QleN/wEp2vXwSvRac/kG6YTCZwikxEH2bHLI3/M4iIJfje8HzSYsOXk34w+OIRmkobQ5kb9+ch808UUMxv);strokeColor=none;spacingTop=-3;spacingBottom=-3;spacingLeft=-3;spacingRight=-3;points=[];labelBackgroundColor=none;rounded=0;html=1;whiteSpace=wrap;" vertex="1" parent="BA0XKQ6sLQ5oc8yL_ZZQ-32">
          <mxGeometry x="31" y="11" width="17" height="17" as="geometry" />
        </mxCell>
        <mxCell id="BA0XKQ6sLQ5oc8yL_ZZQ-38" style="vsdxID=63;fillColor=#2d5967;gradientColor=none;shape=stencil(pZLbDsIgEES/Zl8JZW3E51r/o0mpEBEa2nr5e0Fi2qrpRd92Z8+QCRnArJFFLYDRpnX2JK6qbCXgHhhTRgqnWj8B5oBZZZ04OtuZMu51Ecgwne0lvHCLvh0nnAcXo/eo0Od2iLBWZgDT38CETqCv4yJ4VdoZePwPHEmyGcFBSSdyp2SL/xl65avhM9Jqw0ykBQY/9NWplNaxecP7e9W8FGuK+QM=);strokeColor=none;spacingTop=-3;spacingBottom=-3;spacingLeft=-3;spacingRight=-3;points=[];labelBackgroundColor=none;rounded=0;html=1;whiteSpace=wrap;" vertex="1" parent="BA0XKQ6sLQ5oc8yL_ZZQ-32">
          <mxGeometry x="11" y="31" width="17" height="17" as="geometry" />
        </mxCell>
        <mxCell id="BA0XKQ6sLQ5oc8yL_ZZQ-39" style="vsdxID=64;fillColor=#2d5967;gradientColor=none;shape=stencil(pZJJDoMwDEVP422UxGXYU3oPJEKJmhIUoMPtm8iqCnSE7vzj920r+oBZVxetAsm73tmDOuuyrwG3IKVuauV07yvAHDCrrFN7Z4emJN0WgQzV0Z7ChAv5BOfBI/mVNKkdoUY3I3QleN/wEp2vXwSvRac/kG6YTCZwikxEH2bHLI3/M4iIJfje8HzSYsOXk34w+OIRmkobQ5kb9+ch808UUMxv);strokeColor=none;spacingTop=-3;spacingBottom=-3;spacingLeft=-3;spacingRight=-3;points=[];labelBackgroundColor=none;rounded=0;html=1;whiteSpace=wrap;" vertex="1" parent="BA0XKQ6sLQ5oc8yL_ZZQ-32">
          <mxGeometry x="31" y="31" width="17" height="17" as="geometry" />
        </mxCell>
        <mxCell id="BA0XKQ6sLQ5oc8yL_ZZQ-40" style="vsdxID=65;fillColor=#2d5967;gradientColor=none;shape=stencil(pZJJDoMwDEVP422UxGXYU3oPJEKJmhIUoMPtm8iqCnSE7vzj920r+oBZVxetAsm73tmDOuuyrwG3IKVuauV07yvAHDCrrFN7Z4emJN0WgQzV0Z7ChAv5BOfBI/mVNKkdoUY3I3QleN/wEp2vXwSvRac/kG6YTCZwikxEH2bHLI3/M4iIJfje8HzSYsOXk34w+OIRmkobQ5kb9+ch808UUMxv);strokeColor=none;spacingTop=-3;spacingBottom=-3;spacingLeft=-3;spacingRight=-3;points=[];labelBackgroundColor=none;rounded=0;html=1;whiteSpace=wrap;" vertex="1" parent="BA0XKQ6sLQ5oc8yL_ZZQ-32">
          <mxGeometry x="51" y="11" width="17" height="17" as="geometry" />
        </mxCell>
        <mxCell id="BA0XKQ6sLQ5oc8yL_ZZQ-41" style="vsdxID=66;fillColor=#2d5967;gradientColor=none;shape=stencil(pZJJDoMwDEVP422UxGXYU3oPJEKJmhIUoMPtm8iqCnSE7vzj920r+oBZVxetAsm73tmDOuuyrwG3IKVuauV07yvAHDCrrFN7Z4emJN0WgQzV0Z7ChAv5BOfBI/mVNKkdoUY3I3QleN/wEp2vXwSvRac/kG6YTCZwikxEH2bHLI3/M4iIJfje8HzSYsOXk34w+OIRmkobQ5kb9+ch808UUMxv);strokeColor=none;spacingTop=-3;spacingBottom=-3;spacingLeft=-3;spacingRight=-3;points=[];labelBackgroundColor=none;rounded=0;html=1;whiteSpace=wrap;" vertex="1" parent="BA0XKQ6sLQ5oc8yL_ZZQ-32">
          <mxGeometry x="51" y="31" width="17" height="17" as="geometry" />
        </mxCell>
        <mxCell id="BA0XKQ6sLQ5oc8yL_ZZQ-42" value="&lt;div style=&quot;&quot;&gt;&lt;p style=&quot;margin: 0px; text-indent: 0px; direction: ltr;&quot;&gt;&lt;font face=&quot;Oracle Sans&quot;&gt;&lt;span style=&quot;font-size: 16.93px;&quot;&gt;Application&lt;/span&gt;&lt;/font&gt;&lt;/p&gt;&lt;p style=&quot;margin: 0px; text-indent: 0px; direction: ltr;&quot;&gt;&lt;font face=&quot;Oracle Sans&quot;&gt;&lt;span style=&quot;font-size: 16.93px;&quot;&gt;Backend&lt;/span&gt;&lt;/font&gt;&lt;/p&gt;&lt;/div&gt;" style="verticalAlign=middle;align=center;vsdxID=68;fillColor=none;gradientColor=none;shape=stencil(nZBLDoAgDERP0z3SIyjew0SURgSD+Lu9kMZoXLhwN9O+tukAlrNpJg1SzDH4QW/URgNYgZTkjA4UkwJUgGXng+6DX1zLfmoymdXo17xh5zmRJ6Q42BWCfc2oJfdAr+Yv+AP9Cb7OJ3H/2JG1HNGz/84klThPVCc=);strokeColor=none;spacingTop=-3;spacingBottom=-3;spacingLeft=-3;spacingRight=-3;points=[];labelBackgroundColor=none;rounded=0;html=1;whiteSpace=wrap;" vertex="1" parent="BA0XKQ6sLQ5oc8yL_ZZQ-27">
          <mxGeometry x="4" y="89" width="76" height="41" as="geometry" />
        </mxCell>
        <mxCell id="BA0XKQ6sLQ5oc8yL_ZZQ-43" value="" style="group" vertex="1" connectable="0" parent="BA0XKQ6sLQ5oc8yL_ZZQ-26">
          <mxGeometry x="820" y="381.0000000000002" width="84" height="130" as="geometry" />
        </mxCell>
        <mxCell id="BA0XKQ6sLQ5oc8yL_ZZQ-44" style="vsdxID=53;fillColor=none;gradientColor=none;strokeColor=none;spacingTop=-3;spacingBottom=-3;spacingLeft=-3;spacingRight=-3;points=[];labelBackgroundColor=none;rounded=0;html=1;whiteSpace=wrap;" vertex="1" parent="BA0XKQ6sLQ5oc8yL_ZZQ-43">
          <mxGeometry width="84" height="84" as="geometry" />
        </mxCell>
        <mxCell id="BA0XKQ6sLQ5oc8yL_ZZQ-45" style="vsdxID=54;fillColor=none;gradientColor=none;strokeColor=none;spacingTop=-3;spacingBottom=-3;spacingLeft=-3;spacingRight=-3;points=[];labelBackgroundColor=none;rounded=0;html=1;whiteSpace=wrap;" vertex="1" parent="BA0XKQ6sLQ5oc8yL_ZZQ-44">
          <mxGeometry width="84" height="84" as="geometry" />
        </mxCell>
        <mxCell id="BA0XKQ6sLQ5oc8yL_ZZQ-46" style="vsdxID=55;fillColor=#FFFFFF;gradientColor=none;shape=stencil(lZPRDoIwDEW/Zq9LWUHCs+J/EAVZRCATFP/eYYdsAzW+td2922mzMtxey6zNmYBrp5pzfpfHrmS4Y0LIusyV7HTEMGW4LRqVn1TT10fK22xUjtGluY03DOSLOEajScCDCknC482rsif9oVdkCEggeIjGEfgWGASVwChMmsQchVGgqzBpEvLQfrWStUUJDuKb+QMhuHgz8ERnteDyTnDWVBzcVTiNvnFnCN/o9Cyi2CUEFy8Ab3xWB+hLfOJVxFnuI3+AnA1L6kEsG/HJB1zOxkNfBf39Hf/V62D++4WsKlod+9zfFV2iPcP0CQ==);strokeColor=none;spacingTop=-3;spacingBottom=-3;spacingLeft=-3;spacingRight=-3;points=[];labelBackgroundColor=none;rounded=0;html=1;whiteSpace=wrap;" vertex="1" parent="BA0XKQ6sLQ5oc8yL_ZZQ-45">
          <mxGeometry x="1" y="1" width="82" height="82" as="geometry" />
        </mxCell>
        <mxCell id="BA0XKQ6sLQ5oc8yL_ZZQ-47" style="vsdxID=56;fillColor=#FFFFFF;gradientColor=none;shape=stencil(lZXRdoIwDIafprc9aUMpvXb6Hp6JgzMmHsSNvf1gLbQNCHpX4h/88iehDHe34njNmYRb29Sf+U95aguGb0zK8lLkTdn2J4Z7hrtz3eQfTX2/nOzz9Tgoh9NX/T28obN5BjmqIUvCr41Ijtl/4GD17/fGJgiXoXhiXIYgKdBJJ9IcR5ELJVy6SIdzkQulPMHwz6vyEsIGCRN+JlZpgxRfgFEEN6jJV5ClhDfwCqlqEbgvR8S8VE95e5c0wdU8lTFu77cmtIprEdMGIs+v9GPYIGG5GZQ1SBCzHstZPXI2LDhzCZdnkIzB5sy+qt/aCXihxbBuWaZiyyD2C6hZdAghdmp9YSAi21wWYHTyREInb+J3EQHANro5Sh41R8U7TeQLGy2Ih56BQgXbPJWCVPPcenj9c9thDNcp/U5O3Ry5Um5EjErsXPjorLu5Nrr9wV8E57Kq7D0S/k4vjj5kLx3c/wE=);strokeColor=none;spacingTop=-3;spacingBottom=-3;spacingLeft=-3;spacingRight=-3;points=[];labelBackgroundColor=none;rounded=0;html=1;whiteSpace=wrap;" vertex="1" parent="BA0XKQ6sLQ5oc8yL_ZZQ-45">
          <mxGeometry width="84" height="84" as="geometry" />
        </mxCell>
        <mxCell id="BA0XKQ6sLQ5oc8yL_ZZQ-48" style="vsdxID=57;fillColor=none;gradientColor=none;strokeColor=none;spacingTop=-3;spacingBottom=-3;spacingLeft=-3;spacingRight=-3;points=[];labelBackgroundColor=none;rounded=0;html=1;whiteSpace=wrap;" vertex="1" parent="BA0XKQ6sLQ5oc8yL_ZZQ-44">
          <mxGeometry x="2" y="2" width="80" height="80" as="geometry" />
        </mxCell>
        <mxCell id="BA0XKQ6sLQ5oc8yL_ZZQ-49" style="vsdxID=58;fillColor=#2d5967;gradientColor=none;shape=stencil(lZXLcoMwDEW/xlvGWDzidZr8R6YhhSmFDCEt+ftCbbAkB+Lu/LgyR/IVFrC/ladrIZS89V37WfxU574U8CaUqpqy6Kp+HAk4CNhf2q746Np7czbz62lSTqOv9ns6YTBxOo3SeIpS8mFW5N/saMR11SBxEqlkXft+78zJsdmMI62tOsZyOSgyfdipsrtAd2H5drpOJgmWzra4JIXSO0qFsOcVKSkaqgNQyVO4scZ5RgCZnBPqXSRjSukYONRMueQBXAAOY6OETv+84B6kno9bIBVF1LnLm175AL774KX9XniVGTtzNVzJ38so88puneRSSr2UxihbqK20nCqsszw9hwWvuzCImkV5wmkpKlKE2QQFhPkEBdiVhEPyhoPFWesdB5uUfstxfcDlIwx01+z6EwqKFUF/rgCf/jtgHLj//aWqa/Nc4H3+PoxL5m2Bwy8=);strokeColor=none;spacingTop=-3;spacingBottom=-3;spacingLeft=-3;spacingRight=-3;points=[];labelBackgroundColor=none;rounded=0;html=1;whiteSpace=wrap;" vertex="1" parent="BA0XKQ6sLQ5oc8yL_ZZQ-48">
          <mxGeometry width="80" height="80" as="geometry" />
        </mxCell>
        <mxCell id="BA0XKQ6sLQ5oc8yL_ZZQ-50" style="vsdxID=59;fillColor=#2d5967;gradientColor=none;shape=stencil(pZJbDsIgFERXwy+hQBW/a91Hk1IhIjQUX7sXcmNsNaWx/s1wz32EDGLVoJpeIkqG4N1J3nQbFGJ7RKm2SnodokKsRqzqnJdH7y62Bd83iUzq7K5pwh36SOqg5AGuIOAPgBptR+iruArOoCvB7PosOv0BjkUxpTdYlPOjdxyXf/GCY7qd57/u+ZVfuGeZj+Idl04bA2kb1z/jFZ8gmqx+Ag==);strokeColor=none;spacingTop=-3;spacingBottom=-3;spacingLeft=-3;spacingRight=-3;points=[];labelBackgroundColor=none;rounded=0;html=1;whiteSpace=wrap;" vertex="1" parent="BA0XKQ6sLQ5oc8yL_ZZQ-48">
          <mxGeometry x="11" y="51" width="58" height="17" as="geometry" />
        </mxCell>
        <mxCell id="BA0XKQ6sLQ5oc8yL_ZZQ-51" style="vsdxID=60;fillColor=#2d5967;gradientColor=none;shape=stencil(jVLRDoMgDPwaXg2UOeezc/9hJk4ypwZ107+fpCRClxnf2nLH9eCYzIa66BUDPoyme6qPLseaySsD0G2tjB7XismcyazqjHqYbmpL7PvCIm316t72hhl5MbcU4Au2gmN/Q+x9MggWeJwk0Vk4gggZfAYyWGAjgcNIinGDUxql6Z7yxnADgEheQmV/OzfioW5MZHfNWoUkFCVWiVF/JRkijtokJv2ng9+t6Iv/s0l+tdHt4QSsxRadSjcNJs8/p1FbRxhTmX8B);strokeColor=none;spacingTop=-3;spacingBottom=-3;spacingLeft=-3;spacingRight=-3;points=[];labelBackgroundColor=none;rounded=0;html=1;whiteSpace=wrap;" vertex="1" parent="BA0XKQ6sLQ5oc8yL_ZZQ-48">
          <mxGeometry x="57" y="58" width="4" height="4" as="geometry" />
        </mxCell>
        <mxCell id="BA0XKQ6sLQ5oc8yL_ZZQ-52" style="vsdxID=61;fillColor=#2d5967;gradientColor=none;shape=stencil(pZLbDsIgEES/Zl8JZW3E51r/o0mpEBEa2nr5e0Fi2qrpRd92Z8+QCRnArJFFLYDRpnX2JK6qbCXgHhhTRgqnWj8B5oBZZZ04OtuZMu51Ecgwne0lvHCLvh0nnAcXo/eo0Od2iLBWZgDT38CETqCv4yJ4VdoZePwPHEmyGcFBSSdyp2SL/xl65avhM9Jqw0ykBQY/9NWplNaxecP7e9W8FGuK+QM=);strokeColor=none;spacingTop=-3;spacingBottom=-3;spacingLeft=-3;spacingRight=-3;points=[];labelBackgroundColor=none;rounded=0;html=1;whiteSpace=wrap;" vertex="1" parent="BA0XKQ6sLQ5oc8yL_ZZQ-48">
          <mxGeometry x="11" y="11" width="17" height="17" as="geometry" />
        </mxCell>
        <mxCell id="BA0XKQ6sLQ5oc8yL_ZZQ-53" style="vsdxID=62;fillColor=#2d5967;gradientColor=none;shape=stencil(pZJJDoMwDEVP422UxGXYU3oPJEKJmhIUoMPtm8iqCnSE7vzj920r+oBZVxetAsm73tmDOuuyrwG3IKVuauV07yvAHDCrrFN7Z4emJN0WgQzV0Z7ChAv5BOfBI/mVNKkdoUY3I3QleN/wEp2vXwSvRac/kG6YTCZwikxEH2bHLI3/M4iIJfje8HzSYsOXk34w+OIRmkobQ5kb9+ch808UUMxv);strokeColor=none;spacingTop=-3;spacingBottom=-3;spacingLeft=-3;spacingRight=-3;points=[];labelBackgroundColor=none;rounded=0;html=1;whiteSpace=wrap;" vertex="1" parent="BA0XKQ6sLQ5oc8yL_ZZQ-48">
          <mxGeometry x="31" y="11" width="17" height="17" as="geometry" />
        </mxCell>
        <mxCell id="BA0XKQ6sLQ5oc8yL_ZZQ-54" style="vsdxID=63;fillColor=#2d5967;gradientColor=none;shape=stencil(pZLbDsIgEES/Zl8JZW3E51r/o0mpEBEa2nr5e0Fi2qrpRd92Z8+QCRnArJFFLYDRpnX2JK6qbCXgHhhTRgqnWj8B5oBZZZ04OtuZMu51Ecgwne0lvHCLvh0nnAcXo/eo0Od2iLBWZgDT38CETqCv4yJ4VdoZePwPHEmyGcFBSSdyp2SL/xl65avhM9Jqw0ykBQY/9NWplNaxecP7e9W8FGuK+QM=);strokeColor=none;spacingTop=-3;spacingBottom=-3;spacingLeft=-3;spacingRight=-3;points=[];labelBackgroundColor=none;rounded=0;html=1;whiteSpace=wrap;" vertex="1" parent="BA0XKQ6sLQ5oc8yL_ZZQ-48">
          <mxGeometry x="11" y="31" width="17" height="17" as="geometry" />
        </mxCell>
        <mxCell id="BA0XKQ6sLQ5oc8yL_ZZQ-55" style="vsdxID=64;fillColor=#2d5967;gradientColor=none;shape=stencil(pZJJDoMwDEVP422UxGXYU3oPJEKJmhIUoMPtm8iqCnSE7vzj920r+oBZVxetAsm73tmDOuuyrwG3IKVuauV07yvAHDCrrFN7Z4emJN0WgQzV0Z7ChAv5BOfBI/mVNKkdoUY3I3QleN/wEp2vXwSvRac/kG6YTCZwikxEH2bHLI3/M4iIJfje8HzSYsOXk34w+OIRmkobQ5kb9+ch808UUMxv);strokeColor=none;spacingTop=-3;spacingBottom=-3;spacingLeft=-3;spacingRight=-3;points=[];labelBackgroundColor=none;rounded=0;html=1;whiteSpace=wrap;" vertex="1" parent="BA0XKQ6sLQ5oc8yL_ZZQ-48">
          <mxGeometry x="31" y="31" width="17" height="17" as="geometry" />
        </mxCell>
        <mxCell id="BA0XKQ6sLQ5oc8yL_ZZQ-56" style="vsdxID=65;fillColor=#2d5967;gradientColor=none;shape=stencil(pZJJDoMwDEVP422UxGXYU3oPJEKJmhIUoMPtm8iqCnSE7vzj920r+oBZVxetAsm73tmDOuuyrwG3IKVuauV07yvAHDCrrFN7Z4emJN0WgQzV0Z7ChAv5BOfBI/mVNKkdoUY3I3QleN/wEp2vXwSvRac/kG6YTCZwikxEH2bHLI3/M4iIJfje8HzSYsOXk34w+OIRmkobQ5kb9+ch808UUMxv);strokeColor=none;spacingTop=-3;spacingBottom=-3;spacingLeft=-3;spacingRight=-3;points=[];labelBackgroundColor=none;rounded=0;html=1;whiteSpace=wrap;" vertex="1" parent="BA0XKQ6sLQ5oc8yL_ZZQ-48">
          <mxGeometry x="51" y="11" width="17" height="17" as="geometry" />
        </mxCell>
        <mxCell id="BA0XKQ6sLQ5oc8yL_ZZQ-57" style="vsdxID=66;fillColor=#2d5967;gradientColor=none;shape=stencil(pZJJDoMwDEVP422UxGXYU3oPJEKJmhIUoMPtm8iqCnSE7vzj920r+oBZVxetAsm73tmDOuuyrwG3IKVuauV07yvAHDCrrFN7Z4emJN0WgQzV0Z7ChAv5BOfBI/mVNKkdoUY3I3QleN/wEp2vXwSvRac/kG6YTCZwikxEH2bHLI3/M4iIJfje8HzSYsOXk34w+OIRmkobQ5kb9+ch808UUMxv);strokeColor=none;spacingTop=-3;spacingBottom=-3;spacingLeft=-3;spacingRight=-3;points=[];labelBackgroundColor=none;rounded=0;html=1;whiteSpace=wrap;" vertex="1" parent="BA0XKQ6sLQ5oc8yL_ZZQ-48">
          <mxGeometry x="51" y="31" width="17" height="17" as="geometry" />
        </mxCell>
        <mxCell id="BA0XKQ6sLQ5oc8yL_ZZQ-58" value="&lt;div style=&quot;&quot;&gt;&lt;p style=&quot;margin: 0px; text-indent: 0px; direction: ltr;&quot;&gt;&lt;font face=&quot;Oracle Sans&quot;&gt;&lt;span style=&quot;font-size: 16.93px;&quot;&gt;Application&lt;/span&gt;&lt;/font&gt;&lt;/p&gt;&lt;p style=&quot;margin: 0px; text-indent: 0px; direction: ltr;&quot;&gt;&lt;font face=&quot;Oracle Sans&quot;&gt;&lt;span style=&quot;font-size: 16.93px;&quot;&gt;Backend&lt;/span&gt;&lt;/font&gt;&lt;/p&gt;&lt;/div&gt;" style="verticalAlign=middle;align=center;vsdxID=68;fillColor=none;gradientColor=none;shape=stencil(nZBLDoAgDERP0z3SIyjew0SURgSD+Lu9kMZoXLhwN9O+tukAlrNpJg1SzDH4QW/URgNYgZTkjA4UkwJUgGXng+6DX1zLfmoymdXo17xh5zmRJ6Q42BWCfc2oJfdAr+Yv+AP9Cb7OJ3H/2JG1HNGz/84klThPVCc=);strokeColor=none;spacingTop=-3;spacingBottom=-3;spacingLeft=-3;spacingRight=-3;points=[];labelBackgroundColor=none;rounded=0;html=1;whiteSpace=wrap;" vertex="1" parent="BA0XKQ6sLQ5oc8yL_ZZQ-43">
          <mxGeometry x="4" y="89" width="76" height="41" as="geometry" />
        </mxCell>
        <mxCell id="BA0XKQ6sLQ5oc8yL_ZZQ-65" value="Load Balancers" parent="0" />
        <mxCell id="BA0XKQ6sLQ5oc8yL_ZZQ-59" style="vsdxID=12;fillColor=none;gradientColor=none;strokeColor=none;spacingTop=-3;spacingBottom=-3;spacingLeft=-3;spacingRight=-3;points=[];labelBackgroundColor=none;rounded=0;html=1;whiteSpace=wrap;" vertex="1" parent="BA0XKQ6sLQ5oc8yL_ZZQ-65">
          <mxGeometry x="250" y="181" width="84" height="84" as="geometry" />
        </mxCell>
        <mxCell id="BA0XKQ6sLQ5oc8yL_ZZQ-60" style="vsdxID=13;fillColor=none;gradientColor=none;strokeColor=none;spacingTop=-3;spacingBottom=-3;spacingLeft=-3;spacingRight=-3;points=[];labelBackgroundColor=none;rounded=0;html=1;whiteSpace=wrap;" vertex="1" parent="BA0XKQ6sLQ5oc8yL_ZZQ-59">
          <mxGeometry width="84" height="84" as="geometry" />
        </mxCell>
        <mxCell id="BA0XKQ6sLQ5oc8yL_ZZQ-61" style="vsdxID=14;fillColor=#FFFFFF;gradientColor=none;shape=stencil(pVbbUuMwDP2avGosyddnFv6DgbLNbLdlQoHy9+tuHCdWgjOhb45y5KO71fDd2/7xddeQejt3pz+7z/b5vG/4V0PUHve7rj3HU8P3Dd+9nLrd7+70fnzuv18fr8jr6e/p43rDpdfzCP6qROqrF6BS/78fevShPdbQgSFU4AHUFrwxgAXcBHB2in9673rrMQE0ICeVJHIIutdRF0qoUfRF2ROXuC7ci7QDHu7i7IDBGr8mIMEfPFAo+dkB6pJ/CHNmZwanS3aRCskdNciU3OOtAzOBoTXmMalJEtbCTgQqzNxWpiRHC0qQewZ0JT0yeBF2V/UbCbwtyW0sHBLkBOxL8lhNJMlpzEwSmWziYo2qskC3gGOBqQp4ass3CguhyE4OFanA8SwUXpQ/a7DcrOWB1so/ZjiIOsB5+5Eersn8Ckiv1n8GfdcAk/GCs3sTk/ZgRO/FmWFK8phGK8i5WoMLcyc6oLHkjigrHGebo5zJNXhTkmvpupirfkxVagDAChzBmFvglRchjD31EzC6NHuW8TGk5jZ8xRpjxWO20p8x6oibFCYDOj8XupZXN7ZzKpc8VZdHhhLjqPZ2O7BUoO2KNTPzTd2aGCAWCgSBKxmI8dNbFOYJ9vKpWlWIU7aygoQwzqofKmzboG5Cx8O42L20h0O/F07/y0Uwivolku//AQ==);strokeColor=none;spacingTop=-3;spacingBottom=-3;spacingLeft=-3;spacingRight=-3;points=[];labelBackgroundColor=none;rounded=0;html=1;whiteSpace=wrap;" vertex="1" parent="BA0XKQ6sLQ5oc8yL_ZZQ-60">
          <mxGeometry x="1" y="1" width="82" height="82" as="geometry" />
        </mxCell>
        <mxCell id="BA0XKQ6sLQ5oc8yL_ZZQ-62" style="vsdxID=15;fillColor=#FFFFFF;gradientColor=none;shape=stencil(pVnbVlwhDP2aec0CwvXZtv/hqlpn1apr1Nb+fZnOAQ7JmTDo24h7syEJSeDs8Orl/vr5dmfUy+vh6eftn/3N6/0Ov+yM2T/e3x72r/nXDr/u8Oru6XD74/D09nhz+vv5+og8/vr19Ps4w/uJlzwkPLKM+nsaMYDx/8C3E/5h/yjidZAJWP79YUIEfR7uEFKHttNwxPP4mCDaKUIWMD3BgDcCwYMhS1Iz9ncCOs/terRXYAXjRwva99OL5kwKUPd4vRj4MvPLcB4LSYMPU8EjW5/bc5qQguxfA+qzBAvKiU4IcYaQveCJlz0x6/e3wylN6ErRxXPLkK/bUO+mxCLEsvRlKESIS4S84xLfHkrMLCMxQPSSvM1u1718ciWSqzwG0KaXTzXZVHnEuqKin2hKovqZg0j0VzMX/Ro6or4B7Zi+tpK+yeYPw/3nzBqI+aOC5Hp97cD38j6RcKHy2kKk3q8h1uRti5ESENWxTX6FwpoEpEOdKxKJ1km8XBLWC9rGb5iDHgZbl7Q2RyTmwJXPmjdqgSkBokTxCIkcBd2is4gbByH04i04ayRmHxJtmvzYQYhtXs3mXZRsABN7cQ8We3GX05ymG4cgGj5zgunV8x4czULI4jAv2wWij3VJRd/ioNaRNOvK2bowj8/iZ1uxz+JJa5hoYzLVl0htCdupAA6pnqyPgGWbcLzsI44fdINspwO8A60n8M6B63MdjkpppiA9Qw6MJWcoJ69SpFp1o7k8ozw/w1YspTab0PX6vJJZBeQEq7bElr1qlkECOldGc7IgiVuxrecqqkgV15qlr5xzA9m6SRBE02vDkudG+sooQza/3AiaeA4rUsOtHLi8Jsp49QmwHLI9WO7/CdYWw1zYJsj47NRoZMKGA6vdS+xWp68d6Egb5h0L3xxAloSvHwbQqllYhmKpWa30awjk6CbehqFubUTpQkfy6/5WU07rgle9crGIIgG80XkUzDntwI5um7UcE2zZtuw8Ar19RDCk7sc08Pu6Vyl2b/Zb5cyaDcvtZyNnrlJ28btcpHhRGNyCN26QMoGXtXmCfOXcIMi3YE4gATLasgjfeMYS4awVmoQPNssJo1cITqC1b/jOMSDwl5QBQbey+VHCYNOcINelnJsd6djlKI0W7BQ+l2rSPvpy99gmqJZBFwLt14YKqXQM57bgyZOfWGL586PHclfaJgRIdkIgZ2AkRq3d1HZdVqSfoGVpNL983efrRxnPDIReXD/3wECAudjSe/AoiOyggHCFQVzzR2wnLikHJXWCTOBnWddnuUsJg+8InDAIJP6lYkDgRWRA4GVkmjDYNCMM3gSm7vgyOP9oX5nu9g8Pp49U6//Tr1J56PRFC7/+Aw==);strokeColor=none;spacingTop=-3;spacingBottom=-3;spacingLeft=-3;spacingRight=-3;points=[];labelBackgroundColor=none;rounded=0;html=1;whiteSpace=wrap;" vertex="1" parent="BA0XKQ6sLQ5oc8yL_ZZQ-60">
          <mxGeometry width="84" height="84" as="geometry" />
        </mxCell>
        <mxCell id="BA0XKQ6sLQ5oc8yL_ZZQ-63" style="vsdxID=16;fillColor=#2d5967;gradientColor=none;shape=stencil(pZfRdtsgDIafxrc+lgQGrrvuPXrWdPFZlvSk6Za+/ZIZjJFsMa93MfnhAyF+REMPb/un112D3dvlfPqx+z08X/YNfWkQh+N+dx4ut18NPTb08HI6776fT+/H5/H79emuvP/6efp1H+E69oOuu/fB7iN+29bZvy1fR/lhOCrybl3qTYv2/8WkziNQu0VuxfAGWYdv7+cxLpC6RH38Jj9+XzH+n2cQW2iaQ3elKJoo3UdswlABG5f7pKYSTT4rYlM3rS+hZ7NJ6Em0QkaGnQ0aMeAEGaBlZDCtXLNOBmo5nDgaBdpINHK08QxdJkaZzZvEFpVjgiw9S7FYfpan7PMtX/8sRLGpNyLhYJboscnVth16Tvc51gmPKPDBl2wCkXGhluyEYuNzn5zwcu8nI5rlO4MnyRraldw8Yk4vTuVLNj2HBpVpQYS64xttSWB7L51FHDLr1OQNs2FjS5r8miN/Ss6ir18jm8T5rlheaM+9fnOHUL1NtNPNRkced03txVwmJ1jWez56D/8eSavdyKGQUlCn0bOIGNRDLoJSsV4R8u36LQnQbxFvLJk+Ky/rN4Mi2125U6K+SOMnvwVmtskXk+fZpdqC3zJZtWa3xLBWVBcLNr8EF3d8lY3M6oMRbIQS7EnUFl5cb33QQw2ylOslGpy4Wq0XywZXsjUXoSBcRFNLh1I9hyw7W5rlGO4MmudQKaWgTpodcFCPlQxJxUHmu7LSYWG7eTFjkO21Lzc6x3La5+S7Kd2rVTuWSFgo3uSDQZ5oXk6oh9mXTMYzRmQ0gChhjBcrrTzJQMbXicXaqaJKbIcMjMK+uGmyJK6a7O1HfmG/DIfD+ECf/89f5Lem8TVPj38A);strokeColor=none;spacingTop=-3;spacingBottom=-3;spacingLeft=-3;spacingRight=-3;points=[];labelBackgroundColor=none;rounded=0;html=1;whiteSpace=wrap;" vertex="1" parent="BA0XKQ6sLQ5oc8yL_ZZQ-59">
          <mxGeometry x="2" y="2" width="80" height="80" as="geometry" />
        </mxCell>
        <mxCell id="BA0XKQ6sLQ5oc8yL_ZZQ-64" value="&lt;div style=&quot;font-size: 1px&quot;&gt;&lt;p style=&quot;align:center;margin-left:0;margin-right:0;margin-top:0px;margin-bottom:0px;text-indent:0;valign:middle;direction:ltr;&quot;&gt;&lt;font style=&quot;font-size:16.93px;font-family:Oracle Sans;color:#000000;direction:ltr;letter-spacing:0px;line-height:120%;opacity:1&quot;&gt;Load &lt;/font&gt;&lt;font style=&quot;font-size:16.93px;font-family:Oracle Sans;color:#000000;direction:ltr;letter-spacing:0px;line-height:120%;opacity:1&quot;&gt;Balancer&lt;/font&gt;&lt;font style=&quot;font-size:16.93px;font-family:Oracle Sans;color:#000000;direction:ltr;letter-spacing:0px;line-height:120%;opacity:1&quot;&gt;&lt;br/&gt;&lt;/font&gt;&lt;/p&gt;&lt;/div&gt;" style="verticalAlign=middle;align=center;vsdxID=18;fillColor=none;gradientColor=none;shape=stencil(nZBLDoAgDERP0z3SIyjew0SURgSD+Lu9kMZoXLhwN9O+tukAlrNpJg1SzDH4QW/URgNYgZTkjA4UkwJUgGXng+6DX1zLfmoymdXo17xh5zmRJ6Q42BWCfc2oJfdAr+Yv+AP9Cb7OJ3H/2JG1HNGz/84klThPVCc=);strokeColor=none;spacingTop=-3;spacingBottom=-3;spacingLeft=-3;spacingRight=-3;points=[];labelBackgroundColor=none;rounded=0;html=1;whiteSpace=wrap;" vertex="1" parent="BA0XKQ6sLQ5oc8yL_ZZQ-65">
          <mxGeometry x="259" y="270" width="67" height="40" as="geometry" />
        </mxCell>
        <mxCell id="BA0XKQ6sLQ5oc8yL_ZZQ-66" style="vsdxID=12;fillColor=none;gradientColor=none;strokeColor=none;spacingTop=-3;spacingBottom=-3;spacingLeft=-3;spacingRight=-3;points=[];labelBackgroundColor=none;rounded=0;html=1;whiteSpace=wrap;" vertex="1" parent="BA0XKQ6sLQ5oc8yL_ZZQ-65">
          <mxGeometry x="820" y="181" width="84" height="84" as="geometry" />
        </mxCell>
        <mxCell id="BA0XKQ6sLQ5oc8yL_ZZQ-67" style="vsdxID=13;fillColor=none;gradientColor=none;strokeColor=none;spacingTop=-3;spacingBottom=-3;spacingLeft=-3;spacingRight=-3;points=[];labelBackgroundColor=none;rounded=0;html=1;whiteSpace=wrap;" vertex="1" parent="BA0XKQ6sLQ5oc8yL_ZZQ-66">
          <mxGeometry width="84" height="84" as="geometry" />
        </mxCell>
        <mxCell id="BA0XKQ6sLQ5oc8yL_ZZQ-68" style="vsdxID=14;fillColor=#FFFFFF;gradientColor=none;shape=stencil(pVbbUuMwDP2avGosyddnFv6DgbLNbLdlQoHy9+tuHCdWgjOhb45y5KO71fDd2/7xddeQejt3pz+7z/b5vG/4V0PUHve7rj3HU8P3Dd+9nLrd7+70fnzuv18fr8jr6e/p43rDpdfzCP6qROqrF6BS/78fevShPdbQgSFU4AHUFrwxgAXcBHB2in9673rrMQE0ICeVJHIIutdRF0qoUfRF2ROXuC7ci7QDHu7i7IDBGr8mIMEfPFAo+dkB6pJ/CHNmZwanS3aRCskdNciU3OOtAzOBoTXmMalJEtbCTgQqzNxWpiRHC0qQewZ0JT0yeBF2V/UbCbwtyW0sHBLkBOxL8lhNJMlpzEwSmWziYo2qskC3gGOBqQp4ass3CguhyE4OFanA8SwUXpQ/a7DcrOWB1so/ZjiIOsB5+5Eersn8Ckiv1n8GfdcAk/GCs3sTk/ZgRO/FmWFK8phGK8i5WoMLcyc6oLHkjigrHGebo5zJNXhTkmvpupirfkxVagDAChzBmFvglRchjD31EzC6NHuW8TGk5jZ8xRpjxWO20p8x6oibFCYDOj8XupZXN7ZzKpc8VZdHhhLjqPZ2O7BUoO2KNTPzTd2aGCAWCgSBKxmI8dNbFOYJ9vKpWlWIU7aygoQwzqofKmzboG5Cx8O42L20h0O/F07/y0Uwivolku//AQ==);strokeColor=none;spacingTop=-3;spacingBottom=-3;spacingLeft=-3;spacingRight=-3;points=[];labelBackgroundColor=none;rounded=0;html=1;whiteSpace=wrap;" vertex="1" parent="BA0XKQ6sLQ5oc8yL_ZZQ-67">
          <mxGeometry x="1" y="1" width="82" height="82" as="geometry" />
        </mxCell>
        <mxCell id="BA0XKQ6sLQ5oc8yL_ZZQ-69" style="vsdxID=15;fillColor=#FFFFFF;gradientColor=none;shape=stencil(pVnbVlwhDP2aec0CwvXZtv/hqlpn1apr1Nb+fZnOAQ7JmTDo24h7syEJSeDs8Orl/vr5dmfUy+vh6eftn/3N6/0Ov+yM2T/e3x72r/nXDr/u8Oru6XD74/D09nhz+vv5+og8/vr19Ps4w/uJlzwkPLKM+nsaMYDx/8C3E/5h/yjidZAJWP79YUIEfR7uEFKHttNwxPP4mCDaKUIWMD3BgDcCwYMhS1Iz9ncCOs/terRXYAXjRwva99OL5kwKUPd4vRj4MvPLcB4LSYMPU8EjW5/bc5qQguxfA+qzBAvKiU4IcYaQveCJlz0x6/e3wylN6ErRxXPLkK/bUO+mxCLEsvRlKESIS4S84xLfHkrMLCMxQPSSvM1u1718ciWSqzwG0KaXTzXZVHnEuqKin2hKovqZg0j0VzMX/Ro6or4B7Zi+tpK+yeYPw/3nzBqI+aOC5Hp97cD38j6RcKHy2kKk3q8h1uRti5ESENWxTX6FwpoEpEOdKxKJ1km8XBLWC9rGb5iDHgZbl7Q2RyTmwJXPmjdqgSkBokTxCIkcBd2is4gbByH04i04ayRmHxJtmvzYQYhtXs3mXZRsABN7cQ8We3GX05ymG4cgGj5zgunV8x4czULI4jAv2wWij3VJRd/ioNaRNOvK2bowj8/iZ1uxz+JJa5hoYzLVl0htCdupAA6pnqyPgGWbcLzsI44fdINspwO8A60n8M6B63MdjkpppiA9Qw6MJWcoJ69SpFp1o7k8ozw/w1YspTab0PX6vJJZBeQEq7bElr1qlkECOldGc7IgiVuxrecqqkgV15qlr5xzA9m6SRBE02vDkudG+sooQza/3AiaeA4rUsOtHLi8Jsp49QmwHLI9WO7/CdYWw1zYJsj47NRoZMKGA6vdS+xWp68d6Egb5h0L3xxAloSvHwbQqllYhmKpWa30awjk6CbehqFubUTpQkfy6/5WU07rgle9crGIIgG80XkUzDntwI5um7UcE2zZtuw8Ar19RDCk7sc08Pu6Vyl2b/Zb5cyaDcvtZyNnrlJ28btcpHhRGNyCN26QMoGXtXmCfOXcIMi3YE4gATLasgjfeMYS4awVmoQPNssJo1cITqC1b/jOMSDwl5QBQbey+VHCYNOcINelnJsd6djlKI0W7BQ+l2rSPvpy99gmqJZBFwLt14YKqXQM57bgyZOfWGL586PHclfaJgRIdkIgZ2AkRq3d1HZdVqSfoGVpNL983efrRxnPDIReXD/3wECAudjSe/AoiOyggHCFQVzzR2wnLikHJXWCTOBnWddnuUsJg+8InDAIJP6lYkDgRWRA4GVkmjDYNCMM3gSm7vgyOP9oX5nu9g8Pp49U6//Tr1J56PRFC7/+Aw==);strokeColor=none;spacingTop=-3;spacingBottom=-3;spacingLeft=-3;spacingRight=-3;points=[];labelBackgroundColor=none;rounded=0;html=1;whiteSpace=wrap;" vertex="1" parent="BA0XKQ6sLQ5oc8yL_ZZQ-67">
          <mxGeometry width="84" height="84" as="geometry" />
        </mxCell>
        <mxCell id="BA0XKQ6sLQ5oc8yL_ZZQ-70" style="vsdxID=16;fillColor=#2d5967;gradientColor=none;shape=stencil(pZfRdtsgDIafxrc+lgQGrrvuPXrWdPFZlvSk6Za+/ZIZjJFsMa93MfnhAyF+REMPb/un112D3dvlfPqx+z08X/YNfWkQh+N+dx4ut18NPTb08HI6776fT+/H5/H79emuvP/6efp1H+E69oOuu/fB7iN+29bZvy1fR/lhOCrybl3qTYv2/8WkziNQu0VuxfAGWYdv7+cxLpC6RH38Jj9+XzH+n2cQW2iaQ3elKJoo3UdswlABG5f7pKYSTT4rYlM3rS+hZ7NJ6Em0QkaGnQ0aMeAEGaBlZDCtXLNOBmo5nDgaBdpINHK08QxdJkaZzZvEFpVjgiw9S7FYfpan7PMtX/8sRLGpNyLhYJboscnVth16Tvc51gmPKPDBl2wCkXGhluyEYuNzn5zwcu8nI5rlO4MnyRraldw8Yk4vTuVLNj2HBpVpQYS64xttSWB7L51FHDLr1OQNs2FjS5r8miN/Ss6ir18jm8T5rlheaM+9fnOHUL1NtNPNRkced03txVwmJ1jWez56D/8eSavdyKGQUlCn0bOIGNRDLoJSsV4R8u36LQnQbxFvLJk+Ky/rN4Mi2125U6K+SOMnvwVmtskXk+fZpdqC3zJZtWa3xLBWVBcLNr8EF3d8lY3M6oMRbIQS7EnUFl5cb33QQw2ylOslGpy4Wq0XywZXsjUXoSBcRFNLh1I9hyw7W5rlGO4MmudQKaWgTpodcFCPlQxJxUHmu7LSYWG7eTFjkO21Lzc6x3La5+S7Kd2rVTuWSFgo3uSDQZ5oXk6oh9mXTMYzRmQ0gChhjBcrrTzJQMbXicXaqaJKbIcMjMK+uGmyJK6a7O1HfmG/DIfD+ECf/89f5Lem8TVPj38A);strokeColor=none;spacingTop=-3;spacingBottom=-3;spacingLeft=-3;spacingRight=-3;points=[];labelBackgroundColor=none;rounded=0;html=1;whiteSpace=wrap;" vertex="1" parent="BA0XKQ6sLQ5oc8yL_ZZQ-66">
          <mxGeometry x="2" y="2" width="80" height="80" as="geometry" />
        </mxCell>
        <mxCell id="BA0XKQ6sLQ5oc8yL_ZZQ-71" value="&lt;div style=&quot;font-size: 1px&quot;&gt;&lt;p style=&quot;align:center;margin-left:0;margin-right:0;margin-top:0px;margin-bottom:0px;text-indent:0;valign:middle;direction:ltr;&quot;&gt;&lt;font style=&quot;font-size:16.93px;font-family:Oracle Sans;color:#000000;direction:ltr;letter-spacing:0px;line-height:120%;opacity:1&quot;&gt;Load &lt;/font&gt;&lt;font style=&quot;font-size:16.93px;font-family:Oracle Sans;color:#000000;direction:ltr;letter-spacing:0px;line-height:120%;opacity:1&quot;&gt;Balancer&lt;/font&gt;&lt;font style=&quot;font-size:16.93px;font-family:Oracle Sans;color:#000000;direction:ltr;letter-spacing:0px;line-height:120%;opacity:1&quot;&gt;&lt;br/&gt;&lt;/font&gt;&lt;/p&gt;&lt;/div&gt;" style="verticalAlign=middle;align=center;vsdxID=18;fillColor=none;gradientColor=none;shape=stencil(nZBLDoAgDERP0z3SIyjew0SURgSD+Lu9kMZoXLhwN9O+tukAlrNpJg1SzDH4QW/URgNYgZTkjA4UkwJUgGXng+6DX1zLfmoymdXo17xh5zmRJ6Q42BWCfc2oJfdAr+Yv+AP9Cb7OJ3H/2JG1HNGz/84klThPVCc=);strokeColor=none;spacingTop=-3;spacingBottom=-3;spacingLeft=-3;spacingRight=-3;points=[];labelBackgroundColor=none;rounded=0;html=1;whiteSpace=wrap;" vertex="1" parent="BA0XKQ6sLQ5oc8yL_ZZQ-65">
          <mxGeometry x="829" y="270" width="67" height="40" as="geometry" />
        </mxCell>
        <mxCell id="BA0XKQ6sLQ5oc8yL_ZZQ-75" value="FSDR" parent="0" />
      </root>
    </mxGraphModel>
  </diagram>
</mxfile>
